<svg width="50" height="50" viewBox="0 0 50 50" fill="none" xmlns="http://www.w3.org/2000/svg">
<path d="M41.1204 21.6522C41.0639 22.7967 40.1957 24.2097 38.7964 25.5677V43.4632C38.7949 43.924 38.6133 44.3146 38.3066 44.6198C37.9984 44.9189 37.5986 45.0959 37.1286 45.0989H7.9646C7.49771 45.0959 7.09634 44.9188 6.78814 44.6198C6.4814 44.3146 6.30142 43.924 6.29986 43.4632V14.8651C6.30142 14.4058 6.4814 14.0137 6.78814 13.7085C7.09634 13.4094 7.49771 13.2324 7.9646 13.2294H23.4538C24.7065 11.5845 26.1667 9.89989 27.8209 8.35575C27.8285 8.34657 27.8346 8.33739 27.8422 8.32831H7.9646C6.13355 8.32675 4.45054 9.06376 3.25269 10.2418C2.04878 11.4198 1.298 13.0678 1.29956 14.8652V43.4633C1.298 45.2607 2.04878 46.9118 3.25269 48.0867C4.45044 49.2645 6.13355 50 7.9646 50H37.1288C38.9628 50 40.646 49.2645 41.8437 48.0865C43.0446 46.9116 43.7968 45.2605 43.7953 43.4631V19.87C43.7953 19.87 43.7831 19.8548 43.7632 19.8394C43.0048 20.4895 42.1213 21.109 41.1204 21.6522Z" fill="black"/>
<path d="M48.6384 0C48.6384 0 47.1064 2.28887 37.0997 5.67471C26.8961 9.12783 20.6156 23.1751 20.6156 23.1751C19.1034 26.0529 13.1265 38.0097 13.1265 38.0097C11.4801 41.098 14.4967 42.923 16.2667 39.7339C19.6587 33.612 21.8484 28.0182 27.0059 27.8595C34.53 27.6275 39.6752 21.0571 38.0563 21.3623C35.9261 22.29 31.2295 21.4325 33.9959 21.0053C40.6366 20.4728 44.7289 15.4815 43.3953 15.1429C41.0409 16.0492 38.8451 15.1887 38.4149 14.9292C50.1353 13.504 48.6384 0 48.6384 0Z" fill="black"/>
</svg>
