<svg width="30" height="30" viewBox="0 0 30 30" fill="none" xmlns="http://www.w3.org/2000/svg">
<path d="M15.0001 27.5001C21.9037 27.5001 27.5001 21.9037 27.5001 15.0001C27.5001 8.09647 21.9037 2.5 15.0001 2.5C8.09647 2.5 2.5 8.09647 2.5 15.0001C2.5 21.9037 8.09647 27.5001 15.0001 27.5001Z" fill="#3B5998"/>
<path fill-rule="evenodd" clip-rule="evenodd" d="M18.3219 10.5986C17.9323 10.5207 17.4061 10.4625 17.0752 10.4625C16.1792 10.4625 16.121 10.8521 16.121 11.4755V12.5851H18.3609L18.1656 14.8836H16.121V21.875H13.3164V14.8836H11.8749V12.5851H13.3164V11.1633C13.3164 9.21584 14.2317 8.12503 16.5298 8.12503C17.3282 8.12503 17.9126 8.24191 18.672 8.39772L18.3219 10.5986Z" fill="white"/>
</svg>
