<svg width="75" height="75" viewBox="0 0 75 75" fill="none" xmlns="http://www.w3.org/2000/svg">
<path fill-rule="evenodd" clip-rule="evenodd" d="M10.8265 64.1735C15.4029 68.75 22.7687 68.75 37.5 68.75C52.2312 68.75 59.5971 68.75 64.1735 64.1735C68.75 59.5973 68.75 52.2312 68.75 37.5C68.75 22.7687 68.75 15.4029 64.1735 10.8265C59.5971 6.25 52.2312 6.25 37.5 6.25C22.7687 6.25 15.4029 6.25 10.8265 10.8265C6.25 15.4029 6.25 22.7687 6.25 37.5C6.25 52.2312 6.25 59.5973 10.8265 64.1735ZM58.5938 50C58.5938 51.2943 57.5444 52.3437 56.25 52.3437H18.75C17.4557 52.3437 16.4063 51.2943 16.4063 50C16.4063 48.7056 17.4557 47.6562 18.75 47.6562H56.25C57.5444 47.6562 58.5938 48.7056 58.5938 50ZM56.25 39.8438C57.5444 39.8438 58.5938 38.7944 58.5938 37.5C58.5938 36.2057 57.5444 35.1563 56.25 35.1563H18.75C17.4557 35.1563 16.4063 36.2057 16.4063 37.5C16.4063 38.7944 17.4557 39.8438 18.75 39.8438H56.25ZM58.5938 25.0001C58.5938 26.2944 57.5444 27.3438 56.25 27.3438H18.75C17.4557 27.3438 16.4063 26.2944 16.4063 25.0001C16.4063 23.7056 17.4557 22.6563 18.75 22.6563H56.25C57.5444 22.6563 58.5938 23.7056 58.5938 25.0001Z" fill="#FEFCFA"/>
</svg>
