<svg width="75" height="75" viewBox="0 0 75 75" fill="none" xmlns="http://www.w3.org/2000/svg">
<g clip-path="url(#clip0_23_299)">
<path d="M32.5049 44.7217L44.7803 37.5146L32.5049 30.3076V44.7217Z" fill="#BE0000"/>
<path d="M37.5 0C16.7871 0 0 16.7871 0 37.5C0 58.2129 16.7871 75 37.5 75C58.2129 75 75 58.2129 75 37.5C75 16.7871 58.2129 0 37.5 0ZM56.25 44.209C56.25 50.6689 49.79 50.6689 49.79 50.6689H25.21C18.75 50.6689 18.75 44.209 18.75 44.209V30.8057C18.75 24.3457 25.21 24.3457 25.21 24.3457H49.79C56.25 24.3457 56.25 30.8057 56.25 30.8057V44.209Z" fill="#BE0000"/>
</g>
<defs>
<clipPath id="clip0_23_299">
<rect width="75" height="75" fill="white"/>
</clipPath>
</defs>
</svg>
